<svg version="1.1" id="Layer_1" xmlns="http://www.w3.org/2000/svg" xmlns:xlink="http://www.w3.org/1999/xlink" x="0px" y="0px"
     viewBox="0 0 37 37" style="enable-background:new 0 0 37 37;" xml:space="preserve" width="100">
<style type="text/css">
    .st0{fill:#FFCC06;}
    .st1{fill:none;stroke:#221B1C;stroke-miterlimit:10;
    stroke-width:1;
    stroke-dasharray: 500, 100;
    stroke-linecap: round;
  }
</style>
<g transform="translate(18,18)" >
  <g id="bg">
<path transform="translate(-18,-18)" class="st0" d="M15.9,1.4c4.9-2.8,11.2-1.1,14,3.8l5.7,9.8c2.8,4.9,1.1,11.2-3.8,14L22,34.7c-4.9,2.8-11.2,1.1-14-3.8
    l-5.7-9.8c-2.8-4.9-1.1-11.2,3.8-14L15.9,1.4z"/>
</g></g>
<path id="fork" class="st1" d="M12.1,35.5V21.9c0-0.2,0-0.5,0-0.8c0-0.2,0-0.5,0-0.7c0.2-0.1,0.4-0.2,0.6-0.2c0.3-0.1,0.6-0.2,1-0.4
    c1.6-0.9,2.2-2.4,2.6-3.7c0.4-1.5,0.5-3,0.4-4.7c-0.2-2.4-1.3-4.6-3.2-6.3c-0.8-0.7-1.6-1-2.5-1c-0.8,0-1.5,0.3-2.4,0.8
    C7,5.9,6,7.3,5.4,8.8c-0.9,2.6-0.9,5.4,0.1,8.2c0.6,1.6,1.7,2.7,3.2,3.1c0.1,0.1,0.2,0.1,0.3,0.1c0,0,0,0,0,0L8.5,35.5 M28.3,35.5
    c0-0.2,0-0.7,0-0.9V20.4c0.3-0.1,0.5-0.2,0.8-0.3c2.2-0.9,3.5-2.5,3.7-4.7c0.1-1.6,0.1-3.2,0.1-4.7V5.6c0-0.7-0.6-1.2-1.3-1.2
    c-0.1,0-0.2,0-0.2,0c-0.7,0.3-0.8,0.8-0.8,1.2c0,1,0,2-0.1,3c0,1,0,2,0,3c0,0.5,0,0.9-0.1,1.4c-0.2,0.5-0.6,1-1.1,1
    c-0.1,0-0.1,0-0.2,0c-0.4,0-0.8-0.4-1-0.8c-0.1-0.3-0.1-0.4-0.1-0.7c0-1,0-2,0-3.1C28,8.3,28,7.3,28,6.2V5.4c-0.2-0.6-0.6-1-1.1-1
    c-0.6,0-1,0.4-1,1c-0.1,0.6-0.1,1.1-0.1,1.7c0,0.9,0,1.8-0.1,2.7c0,0.9,0,1.8,0,2.7c0,0.5-0.1,0.8-0.3,1c-0.2,0.3-0.5,0.4-0.8,0.4
    c-0.1,0-0.3,0-0.4-0.1c-0.5-0.2-0.7-0.4-0.8-1l0-0.6v-7c-0.1-0.7-0.6-1.1-1.3-1.1c-0.7,0-1.1,0.5-1.1,1.2c0,0.8,0,1.6,0,2.4
    c0,0.9-0.1,1.7-0.1,2.6c-0.1,0.6-0.1,1.2-0.1,1.9c0,0.6,0,1.3,0,1.9c-0.1,1.5,0.3,2.8,1.3,4c0.6,0.8,1.4,1.3,2.6,1.7
    c0.1,0,0.2,0.1,0.3,0.1c0,0,0,0,0.1,0c-0.1,2.5-0.2,4.9-0.2,7.4c-0.1,2.5-0.1,5.4-0.2,7.9"/>
      <animateTransform
                        xlink:href="#bg"
attributeName="transform"
  type="scale"
                        dur="2.5s"
  values="0.75 0.75;1 1;0.9 0.9;1 1; 0.75 0.75"
                    calcMode="spline"
                    keySplines="0.17 0.46 0.9 0.54;0.17 0.46 0.9 0.54;0.17 0.46 0.9 0.54;0.17 0.46 0.9 0.54"
                    keyTimes="0;0.08;0.1;0.13;1"
  repeatCount="indefinite" />
  <animate
                    xlink:href="#fork"
                    attributeName="stroke-dashoffset"
                    attributeType="XML"
                    dur="2.5s"
                    repeatCount="indefinite"
                    values="380;600"
                    calcMode="spline"
                    keySplines="0.47 0.02 0.3 0.99"
                    keyTimes="0;1"/>
</svg>